HIERARCHY
ROOT Hips
{
	OFFSET -3.958830 18.904000 13.208200
	CHANNELS 6 Xposition Yposition Zposition Zrotation Yrotation Xrotation 
	JOINT LHipJoint
	{
		OFFSET 0.000000 0.000000 0.000000
		CHANNELS 3 Zrotation Yrotation Xrotation
		JOINT LeftUpLeg
		{
			OFFSET 1.800000 -1.400000 0.085000
			CHANNELS 3 Zrotation Yrotation Xrotation
			JOINT LeftLeg
			{
				OFFSET 2.215000 -6.000000 0.000000
				CHANNELS 3 Zrotation Yrotation Xrotation
				JOINT LeftFoot
				{
					OFFSET 2.500000 -6.900000 0.000000
					CHANNELS 3 Zrotation Yrotation Xrotation
					JOINT LeftToeBase
					{
						OFFSET 0.200000 -0.500000 1.950000
						CHANNELS 3 Zrotation Yrotation Xrotation
						End Site
						{
							OFFSET 0.000000 0.000000 0.000000
						}
					}
				}
			}
		}
	}
	JOINT RHipJoint
	{
		OFFSET 0.000000 0.000000 0.000000
		CHANNELS 3 Zrotation Yrotation Xrotation
		JOINT RightUpLeg
		{
			OFFSET -1.800000 -1.400000 0.085000
			CHANNELS 3 Zrotation Yrotation Xrotation
			JOINT RightLeg
			{
				OFFSET -2.215000 -6.000000 0.000000
				CHANNELS 3 Zrotation Yrotation Xrotation
				JOINT RightFoot
				{
					OFFSET -2.500000 -6.900000 0.000000
					CHANNELS 3 Zrotation Yrotation Xrotation
					JOINT RightToeBase
					{
						OFFSET -0.200000 -0.500000 1.950000
						CHANNELS 3 Zrotation Yrotation Xrotation
						End Site
						{
							OFFSET 0.000000 0.000000 0.000000
						}
					}
				}
			}
		}
	}
	JOINT LowerBack
	{
		OFFSET 0.000000 0.000000 0.000000
		CHANNELS 3 Zrotation Yrotation Xrotation
		JOINT Spine
		{
			OFFSET -0.087000 1.940000 -0.288900
			CHANNELS 3 Zrotation Yrotation Xrotation
			JOINT Spine1
			{
				OFFSET 0.000000 1.950000 0.060000
				CHANNELS 3 Zrotation Yrotation Xrotation
				JOINT Neck
				{
					OFFSET 0.000000 0.000000 0.000000
					CHANNELS 3 Zrotation Yrotation Xrotation
					JOINT Neck1
					{
						OFFSET 0.000000 1.600000 0.340000
						CHANNELS 3 Zrotation Yrotation Xrotation
						JOINT Head
						{
							OFFSET 0.000000 1.667000 -0.240000
							CHANNELS 3 Zrotation Yrotation Xrotation
							End Site
							{
								OFFSET 0.000000 0.000000 0.000000
							}
						}
					}
				}
				JOINT LeftShoulder
				{
					OFFSET 0.000000 0.000000 0.000000
					CHANNELS 3 Zrotation Yrotation Xrotation
					JOINT LeftArm
					{
						OFFSET 2.700000 1.550000 -0.730000
						CHANNELS 3 Zrotation Yrotation Xrotation
						JOINT LeftForeArm
						{
							OFFSET 5.450000 0.000000 0.000000
							CHANNELS 3 Zrotation Yrotation Xrotation
							JOINT LeftHand
							{
								OFFSET 3.450000 0.000000 0.000000
								CHANNELS 3 Zrotation Yrotation Xrotation
								JOINT LeftHandIndex1
								{
									OFFSET 0.750000 0.000000 0.000000
									CHANNELS 3 Zrotation Yrotation Xrotation
									End Site
									{
										OFFSET 0.000000 0.000000 0.000000
									}
								}
							}
						}
					}
				}
				JOINT RightShoulder
				{
					OFFSET 0.000000 0.000000 0.000000
					CHANNELS 3 Zrotation Yrotation Xrotation
					JOINT RightArm
					{
						OFFSET -2.700000 1.550000 -0.730000
						CHANNELS 3 Zrotation Yrotation Xrotation
						JOINT RightForeArm
						{
							OFFSET -5.450000 0.000000 0.000000
							CHANNELS 3 Zrotation Yrotation Xrotation
							JOINT RightHand
							{
								OFFSET -3.450000 0.000000 0.000000
								CHANNELS 3 Zrotation Yrotation Xrotation
								JOINT RightHandIndex1
								{
									OFFSET -0.750000 0.000000 0.000000
									CHANNELS 3 Zrotation Yrotation Xrotation
									End Site
									{
										OFFSET 0.000000 0.000000 0.000000
									}
								}
							}
						}
					}
				}
			}
		}
	}
}
MOTION
Frames: 12
Frame Time: 0.016667
1.430370 15.894670 0.058440 -4.252076 12.308591 11.403529 -15.371287 12.530717 2.198001 7.330853 -2.905279 -16.844364 -5.163576 4.583539 9.937647 -1.609576 5.054872 3.464895 0.412560 -0.211370 0.081600 18.337981 -9.310632 3.593837 -17.478944 3.629818 -31.896681 5.096570 -1.263976 -5.150193 0.528421 -3.566801 3.505465 0.711870 1.548440 0.372570 -3.459430 -1.973989 -6.493991 3.622588 -1.684370 -2.170410 2.696750 -2.081805 6.372984 -0.678983 -0.175308 -1.888226 0.188254 2.785653 13.987558 -7.523730 0.745280 5.830910 -21.359450 9.732695 -2.256462 -44.495727 4.830106 -3.022205 -38.425518 -28.347248 6.438300 -5.121943 3.322456 -0.152760 1.405450 -1.235640 0.505040 23.676938 -9.661411 -1.746369 42.937356 -4.018163 -3.125817 78.596166 71.584261 44.728870 1.446572 -2.067359 -0.896720 0.682510 0.286690 -0.363440 
1.344130 15.860480 0.074630 -3.366115 12.053154 11.377102 -15.373998 12.622701 2.198950 6.839858 -2.825335 -16.371675 -4.616622 4.491841 9.823649 -1.552237 5.072908 3.523817 0.271320 -0.352600 -0.032820 18.326926 -9.432006 3.477319 -18.494208 3.206424 -32.030968 4.915896 -1.670728 -2.814065 0.617715 -3.612486 3.523152 0.637100 1.671520 0.374430 -3.445162 -1.988946 -6.402050 2.961129 -1.697147 -2.383235 2.733912 -2.057092 5.570186 -0.855975 -0.138137 -1.384169 0.178393 3.379007 13.981545 -7.604940 1.364180 7.714800 -20.962790 11.007921 -2.515765 -45.496896 3.960874 -2.571985 -36.486801 -29.297005 6.542537 -5.234813 3.292507 -0.239690 1.498230 -1.322930 0.500520 23.690411 -10.828000 -2.569746 44.669247 -2.768860 -3.540595 62.417983 68.673722 33.239650 1.127059 -2.478368 -0.928700 0.692100 0.345780 -0.327220 
1.251540 15.854990 0.095160 -2.670981 12.822476 11.164891 -15.370412 12.756362 2.252579 6.830260 -2.902828 -17.031845 -4.276479 4.598467 10.845209 -1.504064 5.084475 3.537402 0.161980 -0.463170 -0.114040 18.304930 -9.659878 3.261301 -19.223824 2.649352 -31.859885 5.499674 -2.481923 1.544975 0.687018 -3.641484 3.536134 0.561710 1.728430 0.358370 -3.432190 -2.002323 -6.291508 2.596934 -1.880168 -2.372632 2.373398 -2.247331 5.030323 -0.726947 0.107959 -1.131936 0.513386 3.776989 14.095991 -7.373330 1.858820 8.791690 -19.632766 12.271518 -2.572756 -47.524570 3.178177 -2.588463 -35.374621 -31.854246 7.219496 -5.276794 3.259778 -0.274670 1.531360 -1.365490 0.484310 22.173586 -12.342237 -3.244645 48.246079 -1.950555 -5.119437 46.394557 62.867961 21.339468 0.983907 -2.523482 -0.946440 0.696220 0.389990 -0.307700 
1.163390 15.887680 0.108970 -2.317781 13.698033 10.468837 -15.362317 12.897469 2.333617 7.089645 -3.115750 -18.666333 -4.036209 5.006618 13.842973 -1.441013 5.123988 3.459684 0.115850 -0.538580 -0.113010 18.275166 -9.957336 3.020879 -19.477815 2.119619 -31.286128 6.681984 -3.728133 7.184617 0.665913 -3.735435 3.480782 0.456830 1.630170 0.341630 -3.425190 -1.964265 -6.210659 2.765080 -2.000401 -1.695104 1.605877 -2.360207 4.547714 -0.274836 0.344429 -1.041500 0.870130 3.157932 14.962582 -7.316790 1.830770 8.731280 -19.554546 12.403513 -2.610137 -48.595792 2.471048 -3.088128 -34.645468 -35.086933 8.019380 -5.168096 3.242219 -0.188790 1.431960 -1.298010 0.445130 21.192901 -12.909604 -3.451553 50.767019 -1.548526 -6.855942 34.222978 54.292084 12.182915 1.031291 -2.329931 -0.919330 0.646380 0.399490 -0.326350 
1.061450 15.951210 0.108780 -1.787031 13.817420 9.230035 -15.389441 13.036671 2.482824 7.250846 -3.642940 -21.559804 -3.402566 5.863943 20.196406 -1.345324 5.511795 3.225882 0.118510 -0.562980 -0.095980 18.222900 -10.161176 2.797113 -19.506892 1.694625 -30.426291 7.965860 -5.262054 13.200331 0.578276 -4.007733 3.372384 0.373410 1.503770 0.298690 -3.329472 -2.113003 -6.196065 2.101546 -1.734775 -0.371280 1.949614 -1.985963 4.436699 -0.421841 0.246305 -0.949935 0.460133 2.488854 16.859147 -6.438490 0.950130 7.545930 -20.046254 11.996082 -2.526408 -49.839464 1.812324 -3.915449 -35.312340 -39.124387 9.325556 -4.985242 3.189893 -0.033720 1.272390 -1.186800 0.429460 21.907892 -12.352489 -3.547577 50.656828 -1.672316 -8.101701 27.825669 46.414359 7.503201 1.130778 -2.072071 -0.897550 0.646510 0.391350 -0.344160 
0.951500 16.013020 0.108550 -1.330618 13.368589 7.622322 -15.425928 12.991266 2.809400 7.848251 -4.620063 -25.072161 -3.187468 7.137452 27.965154 -1.229416 6.413857 2.776776 0.184940 -0.510700 -0.015090 18.184605 -10.270850 2.549423 -19.173378 1.418949 -28.630958 9.048026 -6.805141 18.427143 0.433011 -4.416461 3.204875 0.354930 1.330510 0.232140 -3.225295 -2.193795 -6.326202 1.597298 -1.242821 1.547672 2.319592 -1.369477 4.531692 -0.677761 -0.187431 -0.869582 -0.557798 1.772872 19.063735 -5.606120 -0.153540 4.741010 -21.291531 11.023049 -2.433428 -49.833558 1.618176 -4.813824 -38.441907 -44.108205 11.870814 -4.773025 3.128965 0.164150 1.083010 -1.046760 0.404060 23.522032 -10.821047 -3.513529 48.912208 -1.538136 -8.580716 23.768438 38.602713 4.546747 1.215591 -1.822775 -0.894100 0.678560 0.362240 -0.393700 
0.839130 16.069510 0.096360 -1.330425 12.167409 5.297371 -15.456204 12.781564 3.322799 9.780835 -5.661851 -28.313440 -4.880001 9.312582 35.231040 -1.005713 7.739679 2.163314 0.281810 -0.429030 0.150030 18.154892 -10.348148 2.277952 -18.362733 1.332006 -25.911253 9.563277 -8.172012 22.897776 0.227295 -4.817615 3.026274 0.332800 1.079320 0.187230 -3.131147 -2.120047 -6.675490 1.801359 -0.247611 4.788674 2.582484 -0.201348 4.485924 -0.553322 -0.664854 -0.923270 -1.784638 0.892689 22.163755 -5.947760 -0.334580 0.845100 -24.105198 8.981786 -2.409251 -47.972655 1.526937 -5.637219 -44.141993 -49.727033 16.201064 -4.547437 3.080385 0.384760 0.866710 -0.844740 0.352640 25.870320 -8.095243 -3.009655 45.684540 -1.104562 -8.376620 20.799600 30.589858 2.533337 1.316219 -1.599322 -0.859560 0.671070 0.298130 -0.472350 
0.736110 16.099490 0.082210 -1.463580 10.197993 2.897326 -15.435659 12.574179 3.841025 11.625429 -6.371470 -30.658235 -7.181691 11.433835 39.816563 -0.696432 8.792025 1.720437 0.338040 -0.387540 0.253380 18.155671 -10.503981 2.027687 -17.095253 1.279715 -22.853253 8.780759 -9.091872 27.072418 0.035434 -5.202296 2.889031 0.262720 0.887970 0.180380 -3.156099 -1.900183 -7.097980 2.918757 0.687058 8.372071 1.931375 1.025131 4.381790 -0.177406 -1.364625 -1.711683 -3.365886 0.714255 25.432119 -5.941350 -0.006170 -1.274700 -26.197177 6.542650 -1.953218 -46.443116 1.819105 -6.599509 -50.992918 -55.074724 21.724926 -4.362371 3.113715 0.514630 0.700490 -0.684250 0.328450 26.872001 -4.900871 -1.736232 43.993342 -1.337642 -8.189253 19.186926 24.139530 1.353566 1.436148 -1.471607 -0.779530 0.609220 0.229760 -0.500130 
0.630770 16.101770 0.083310 -1.754998 7.776091 0.784854 -15.352540 12.462931 4.153023 13.399894 -6.234208 -31.737076 -9.474673 12.618690 40.096518 -0.585068 9.080704 1.548240 0.424430 -0.297500 0.320710 18.203126 -10.703853 1.878694 -15.757709 1.377251 -20.123209 7.416040 -9.577497 30.873484 -0.157539 -5.568841 2.755074 0.247690 0.731470 0.178290 -3.333322 -1.620917 -7.402879 4.949736 1.447915 11.412682 1.033200 2.231547 4.443093 -0.146529 -2.726651 -2.619548 -6.015476 0.897747 27.795256 -5.045810 -0.445180 -4.146820 -26.875238 5.026146 -1.535045 -45.490884 2.140582 -6.905911 -60.880142 -59.664485 29.597409 -4.211839 3.171331 0.628050 0.550180 -0.549970 0.327210 26.969308 -2.141472 -0.504856 42.605041 -1.527576 -7.495918 18.614104 17.847230 0.550622 1.524000 -1.383446 -0.706520 0.567750 0.173960 -0.509820 
0.521570 16.075960 0.083910 -1.732085 6.023263 -0.516398 -15.291459 12.392721 4.363841 14.224226 -6.161324 -33.242509 -10.485020 12.411330 38.183838 -0.668901 8.788549 1.618561 0.482900 -0.232370 0.365150 18.247544 -10.860580 1.744307 -14.734369 1.297907 -17.736428 5.749851 -9.663762 33.670477 -0.271399 -5.870557 2.667288 0.278020 0.672920 0.147650 -3.471539 -1.469483 -7.521208 6.428601 1.985057 13.224618 0.549531 3.159186 4.553946 -0.411256 -3.942658 -2.836434 -8.381768 1.224927 28.652692 -4.522320 -0.796810 -5.735210 -27.719400 4.667609 -1.824378 -43.704680 1.727595 -5.925317 -73.183417 -62.382310 39.450315 -4.197592 3.162711 0.677840 0.487380 -0.508550 0.331800 27.884653 -0.852441 0.212276 40.657744 -2.635490 -7.003074 18.768779 13.668325 0.009319 1.536489 -1.344342 -0.701710 0.586640 0.141620 -0.522480 
0.409120 16.022330 0.076140 -0.805369 5.413258 -0.751760 -15.279030 12.404538 4.424737 13.370906 -6.269442 -34.759727 -9.982354 10.648437 33.655621 -0.898776 7.736185 1.999670 0.536750 -0.168260 0.404380 18.239223 -11.014510 1.644124 -14.609129 0.967998 -15.825879 4.526195 -9.436924 34.323240 -0.309591 -5.959870 2.645341 0.332560 0.673480 0.129130 -3.470089 -1.415706 -7.456706 5.978243 2.580805 13.645823 0.527311 3.854427 4.696859 -0.697121 -4.254007 -2.546900 -8.941315 1.079788 28.288672 -4.238230 -1.150490 -6.419270 -28.391818 4.858299 -2.344507 -41.665496 0.784986 -4.326110 -87.056491 -64.367289 51.467774 -4.264409 3.104478 0.679880 0.479410 -0.501870 0.356000 28.940174 -0.790146 0.250673 39.154831 -3.360863 -6.308329 18.456034 9.870455 -0.550945 1.541816 -1.335225 -0.714310 0.624960 0.106490 -0.521390 
0.296740 15.943610 0.064240 0.298397 5.038699 -0.109507 -15.271501 12.429454 4.397625 11.946058 -6.209527 -35.787321 -9.254923 8.245824 26.135596 -1.180766 6.208033 2.574505 0.581280 -0.117640 0.416810 18.230254 -11.163255 1.555869 -14.432549 0.703173 -14.797275 2.843337 -8.770846 34.110262 -0.290878 -5.909421 2.659442 0.385160 0.700590 0.157110 -3.456623 -1.352512 -7.274890 5.105908 3.168633 12.682922 0.575941 4.364537 4.844985 -0.967739 -4.169232 -2.026230 -8.627905 0.723914 27.223766 -4.761560 -1.288250 -5.922640 -28.670191 5.377835 -2.945770 -39.978568 -0.584040 -2.746975 -101.513394 -66.285940 66.143551 -4.357947 3.030388 0.639320 0.522330 -0.524700 0.381650 29.667522 -1.496450 -0.028138 38.472012 -3.923448 -5.652218 17.322084 6.780713 -1.029300 1.534272 -1.379665 -0.707810 0.617100 0.089760 -0.514170 
